<svg width="50" height="54" viewBox="0 0 50 54" fill="none" xmlns="http://www.w3.org/2000/svg">
<path d="M38.0725 35.5626L38.0725 33.8751H38.0725V35.5626ZM44.6129 26.5292L42.9577 26.8577L42.9577 26.8577L44.6129 26.5292ZM44.6359 26.6452L46.2911 26.3167L46.2911 26.3167L44.6359 26.6452ZM44.6359 29.8202L42.9807 29.4917L42.9807 29.4918L44.6359 29.8202ZM38.182 20.9028L38.182 19.2153H38.182V20.9028ZM36.0412 35.5626L34.4005 35.1681L33.8999 37.2501H36.0412V35.5626ZM37.3308 20.9028V19.2153H35.5392L35.6463 21.0037L37.3308 20.9028ZM38.0725 33.8751H37.0538V37.2501H38.0725V33.8751ZM42.9577 26.8577L42.9807 26.9736L46.2911 26.3167L46.2681 26.2008L42.9577 26.8577ZM42.9807 26.9736C43.1453 27.8032 43.1453 28.6622 42.9807 29.4917L46.2911 30.1487C46.5418 28.8854 46.5418 27.58 46.2911 26.3167L42.9807 26.9736ZM38.0725 37.2501C42.1314 37.2501 45.4877 34.1974 46.2911 30.1487L42.9807 29.4918C42.4546 32.1428 40.3418 33.8751 38.0725 33.8751L38.0725 37.2501ZM38.182 22.5903C40.3874 22.5903 42.445 24.2743 42.9577 26.8577L46.2681 26.2008C45.4781 22.2197 42.177 19.2153 38.182 19.2153L38.182 22.5903ZM37.0538 33.8751H36.0412V37.2501H37.0538V33.8751ZM35.6463 21.0037C35.9316 25.7672 35.5109 30.5496 34.4005 35.1681L37.6819 35.957C38.8707 31.0129 39.3204 25.8966 39.0153 20.802L35.6463 21.0037ZM38.182 19.2153H37.3308V22.5903H38.182V19.2153Z" fill="#FEA609"/>
<path d="M15.153 7.25094L14.8783 5.58596L14.8783 5.58596L15.153 7.25094ZM27.3664 7.25095L27.6412 5.58596L27.6412 5.58596L27.3664 7.25095ZM26.7372 46.729L27.0549 48.3863L26.7372 46.729ZM15.7823 46.729L16.1001 45.0716L16.1001 45.0716L15.7823 46.729ZM7.39357 38.9273L9.01612 38.4636L7.39357 38.9273ZM5.54067 17.1142L3.86296 16.9326L3.86296 16.9326L5.54067 17.1142ZM37.1299 18.5106L35.4522 18.6921L35.4522 18.6921L37.1299 18.5106ZM35.5097 37.5842L33.8872 37.1205L33.8872 37.1205L35.5097 37.5842ZM5.61615 16.4167L7.29385 16.5983L7.29385 16.5983L5.61615 16.4167ZM13.5581 7.51412L13.8329 9.17911L13.8329 9.17911L13.5581 7.51412ZM15.503 46.6754L15.1852 48.3327L15.1853 48.3327L15.503 46.6754ZM35.2098 38.6338L36.8323 39.0975L36.8323 39.0975L35.2098 38.6338ZM36.9562 16.9057L38.6339 16.7242L38.6339 16.7242L36.9562 16.9057ZM28.5119 7.43996L28.2371 9.10495L28.2371 9.10495L28.5119 7.43996ZM36.0413 35.5627L34.4005 35.1682L36.0413 35.5627ZM37.3309 20.903L35.6464 21.0039L37.3309 20.903ZM35.2785 17.0873L35.4522 18.6921L38.8076 18.329L38.6339 16.7242L35.2785 17.0873ZM33.8872 37.1205L33.5872 38.1702L36.8323 39.0975L37.1323 38.0479L33.8872 37.1205ZM7.21837 17.2958L7.29385 16.5983L3.93844 16.2352L3.86296 16.9326L7.21837 17.2958ZM16.1001 45.0716L15.8207 45.0181L15.1853 48.3327L15.4646 48.3863L16.1001 45.0716ZM13.8329 9.17911L15.4278 8.91593L14.8783 5.58596L13.2834 5.84914L13.8329 9.17911ZM27.0917 8.91593L28.2371 9.10495L28.7866 5.77498L27.6412 5.58596L27.0917 8.91593ZM15.4278 8.91593C19.2936 8.27802 23.2258 8.27802 27.0917 8.91593L27.6412 5.58596C23.4115 4.88801 19.108 4.88801 14.8783 5.58596L15.4278 8.91593ZM26.4194 45.0716C23.0059 45.7261 19.5136 45.7261 16.1001 45.0716L15.4645 48.3863C19.2979 49.1212 23.2215 49.1212 27.0549 48.3863L26.4194 45.0716ZM9.01612 38.4636C7.06116 31.6226 6.44828 24.4118 7.21837 17.2958L3.86296 16.9326C3.04625 24.4794 3.69566 32.1286 5.77102 39.391L9.01612 38.4636ZM7.29385 16.5983C7.71541 12.7029 10.4636 9.73508 13.8329 9.17911L13.2834 5.84914C8.25958 6.67812 4.50504 10.9996 3.93844 16.2352L7.29385 16.5983ZM5.77102 39.391C7.07975 43.9706 10.6749 47.4679 15.1852 48.3327L15.8208 45.0181C12.6714 44.4143 10.007 41.931 9.01612 38.4636L5.77102 39.391ZM33.5872 38.1702C32.5448 41.8177 29.7402 44.4349 26.4194 45.0716L27.0549 48.3863C31.7368 47.4886 35.4721 43.8573 36.8323 39.0975L33.5872 38.1702ZM38.6339 16.7242C38.0361 11.1998 34.0759 6.64777 28.7866 5.77498L28.2371 9.10495C31.8719 9.70472 34.8257 12.9031 35.2785 17.0873L38.6339 16.7242ZM34.4005 35.1682C34.2432 35.8225 34.0721 36.4734 33.8872 37.1205L37.1323 38.0479C37.3303 37.3548 37.5136 36.6577 37.682 35.9572L34.4005 35.1682ZM35.4522 18.6921C35.5355 19.4617 35.6002 20.2325 35.6464 21.0039L39.0154 20.8021C38.9659 19.977 38.8967 19.1523 38.8076 18.329L35.4522 18.6921ZM35.6464 21.0039C35.9317 25.7673 35.511 30.5497 34.4005 35.1682L37.682 35.9572C38.8707 31.0131 39.3205 25.8968 39.0154 20.8021L35.6464 21.0039Z" fill="white"/>
<path d="M12.5 25.875V27.5938C12.5 30.9025 13.2133 34.1657 14.5833 37.125" stroke="#FEA609" stroke-width="3.375" stroke-linecap="round"/>
</svg>
