<svg width="41" height="44" viewBox="0 0 41 44" fill="none" xmlns="http://www.w3.org/2000/svg">
<path d="M27.9408 16.6406C24.9052 17.7334 20.8577 13.3621 21.8696 10.0836M23.1168 8.73668L16.5768 15.7999C13.7336 18.8705 11.7165 22.718 10.7413 26.9309L10.4253 28.2961C10.3268 28.7214 10.6836 29.1067 11.0775 29.0004L12.3415 28.6591C16.2423 27.6059 19.8048 25.4275 22.648 22.3568L29.188 15.2936C29.9931 14.4241 30.4454 13.2448 30.4454 12.0152C30.4454 9.45451 28.5233 7.37869 26.1524 7.37869C25.0138 7.37869 23.9218 7.86718 23.1168 8.73668Z" stroke="white" stroke-width="2.70495"/>
<path d="M23.1168 8.73668C23.9219 7.86718 25.0138 7.37869 26.1524 7.37869C28.5234 7.37869 30.4454 9.45451 30.4454 12.0152C30.4454 13.2448 29.9931 14.4241 29.188 15.2936L27.9408 16.6406C24.9052 17.7334 20.8577 13.3621 21.8696 10.0836L23.1168 8.73668Z" stroke="#FEA609" stroke-width="2.70495"/>
<path d="M32.1152 36.2314H8.73907" stroke="#FEA609" stroke-width="2.70495" stroke-linecap="round" stroke-linejoin="round"/>
</svg>
