<svg width="41" height="44" viewBox="0 0 41 44" fill="none" xmlns="http://www.w3.org/2000/svg">
<path d="M3.72992 30.8591L3.72992 23.6833L3.77062 23.0276C4.29435 14.5892 9.86108 7.58059 17.3647 5.91242C19.3861 5.46303 21.4682 5.46303 23.4896 5.91242C30.9932 7.58058 36.5599 14.5892 37.0836 23.0276L37.1243 23.6833V30.8591M26.4207 32.2663C26.1381 30.6598 26.1381 29.0081 26.4207 27.4016C26.8749 24.8195 28.6055 22.7396 30.8959 22.0232L31.3817 21.8712C31.8867 21.7133 32.409 21.6332 32.9338 21.6332C35.2482 21.6332 37.1243 23.7065 37.1243 26.264V33.4039C37.1243 35.9614 35.2482 38.0347 32.9338 38.0347C32.409 38.0347 31.8867 37.9546 31.3817 37.7967L30.8959 37.6447C28.6055 36.9283 26.8749 34.8484 26.4207 32.2663ZM14.4335 32.2663C14.7161 30.6598 14.7161 29.0081 14.4335 27.4016C13.9793 24.8195 12.2487 22.7396 9.95831 22.0232L9.47249 21.8712C8.96751 21.7133 8.44521 21.6332 7.92039 21.6332C5.60605 21.6332 3.72992 23.7065 3.72993 26.264L3.72993 33.4039C3.72992 35.9614 5.60605 38.0347 7.92039 38.0347C8.44521 38.0347 8.96751 37.9546 9.47249 37.7967L9.95831 37.6447C12.2487 36.9283 13.9793 34.8484 14.4335 32.2663Z" stroke="white" stroke-width="2.70495"/>
<path d="M37.1243 33.4039C37.1243 35.9614 35.2482 38.0347 32.9338 38.0347C32.409 38.0347 31.8867 37.9546 31.3817 37.7966L30.8959 37.6446C28.6055 36.9282 26.8749 34.8484 26.4207 32.2662C26.1381 30.6597 26.1381 29.0081 26.4207 27.4016C26.8749 24.8194 28.6055 22.7395 30.8959 22.0231L31.3817 21.8712C31.8867 21.7132 32.409 21.6331 32.9338 21.6331C35.2482 21.6331 37.1243 23.7064 37.1243 26.2639V33.4039Z" stroke="#FEA609" stroke-width="2.70495"/>
<path d="M3.72993 33.4039C3.72992 35.9614 5.60605 38.0347 7.92039 38.0347C8.44521 38.0347 8.96751 37.9546 9.47249 37.7966L9.95831 37.6446C12.2487 36.9282 13.9793 34.8484 14.4335 32.2662C14.7161 30.6597 14.7161 29.0081 14.4335 27.4016C13.9793 24.8194 12.2487 22.7395 9.95831 22.0231L9.47249 21.8712C8.96751 21.7132 8.44521 21.6331 7.92039 21.6331C5.60605 21.6331 3.72992 23.7064 3.72993 26.2639L3.72993 33.4039Z" stroke="#FEA609" stroke-width="2.70495"/>
</svg>
