<svg width="41" height="44" viewBox="0 0 41 44" fill="none" xmlns="http://www.w3.org/2000/svg">
<path d="M5.95659 9.32255C6.29566 7.76141 7.48892 6.52658 9.03753 6.13426V6.13426C10.4854 5.76747 12.0019 5.76747 13.4498 6.13426V6.13426C14.9984 6.52658 16.1916 7.76141 16.5307 9.32255L16.6124 9.69873C16.9256 11.1407 16.9256 12.6331 16.6124 14.0751L16.5307 14.4513C16.1916 16.0124 14.9984 17.2473 13.4498 17.6396V17.6396C12.0019 18.0064 10.4854 18.0064 9.03753 17.6396V17.6396C7.48892 17.2473 6.29566 16.0124 5.95659 14.4513L5.87489 14.0751C5.5617 12.6331 5.5617 11.1407 5.87489 9.69873L5.95659 9.32255Z" stroke="white" stroke-width="2.70495"/>
<path d="M5.95659 29.1588C6.29566 27.5977 7.48892 26.3628 9.03753 25.9705V25.9705C10.4854 25.6037 12.0019 25.6037 13.4498 25.9705V25.9705C14.9984 26.3628 16.1916 27.5977 16.5307 29.1588L16.6124 29.535C16.9256 30.977 16.9256 32.4694 16.6124 33.9114L16.5307 34.2875C16.1916 35.8487 14.9984 37.0835 13.4498 37.4758V37.4758C12.0019 37.8426 10.4854 37.8426 9.03753 37.4758V37.4758C7.48892 37.0835 6.29566 35.8487 5.95659 34.2875L5.87489 33.9114C5.5617 32.4694 5.5617 30.977 5.87489 29.535L5.95659 29.1588Z" stroke="#FEA609" stroke-width="2.70495"/>
<path d="M24.3235 9.32255C24.6626 7.76141 25.8558 6.52658 27.4044 6.13426V6.13426C28.8523 5.76747 30.3688 5.76747 31.8167 6.13426V6.13426C33.3653 6.52658 34.5585 7.76141 34.8976 9.32255L34.9793 9.69873C35.2925 11.1407 35.2925 12.6331 34.9793 14.0751L34.8976 14.4513C34.5586 16.0124 33.3653 17.2473 31.8167 17.6396V17.6396C30.3688 18.0064 28.8523 18.0064 27.4044 17.6396V17.6396C25.8558 17.2473 24.6626 16.0124 24.3235 14.4513L24.2418 14.0751C23.9286 12.6331 23.9286 11.1407 24.2418 9.69873L24.3235 9.32255Z" stroke="white" stroke-width="2.70495"/>
<path d="M24.3235 29.1588C24.6626 27.5977 25.8558 26.3628 27.4044 25.9705V25.9705C28.8523 25.6037 30.3688 25.6037 31.8167 25.9705V25.9705C33.3653 26.3628 34.5585 27.5977 34.8976 29.1588L34.9793 29.535C35.2925 30.977 35.2925 32.4694 34.9793 33.9114L34.8976 34.2875C34.5586 35.8487 33.3653 37.0835 31.8167 37.4758V37.4758C30.3688 37.8426 28.8523 37.8426 27.4044 37.4758V37.4758C25.8558 37.0835 24.6626 35.8487 24.3235 34.2875L24.2418 33.9114C23.9286 32.4694 23.9286 30.977 24.2418 29.535L24.3235 29.1588Z" stroke="white" stroke-width="2.70495"/>
</svg>
