<svg width="32" height="32" viewBox="0 0 32 32" fill="none" xmlns="http://www.w3.org/2000/svg">
<path d="M26.8608 28.8026C27.3962 29.338 28.2642 29.338 28.7996 28.8026C29.335 28.2672 29.335 27.3991 28.7996 26.8637L26.8608 28.8026ZM22.0373 23.9791L26.8608 28.8026L28.7996 26.8637L23.9761 22.0402L22.0373 23.9791Z" fill="white"/>
<path d="M4.55512 18.3321L5.88987 18.019L4.55512 18.3321ZM4.55512 11.1498L5.88987 11.4629L4.55512 11.1498ZM24.9206 11.1498L26.2554 10.8367L24.9206 11.1498ZM24.9206 18.3321L23.5859 18.019L24.9206 18.3321ZM18.329 24.9237L18.0159 23.5889L18.329 24.9237ZM11.1467 24.9237L10.8336 26.2584L11.1467 24.9237ZM11.1467 4.55817L10.8336 3.22341L10.8336 3.22341L11.1467 4.55817ZM18.329 4.55817L18.6421 3.22341L18.329 4.55817ZM5.88987 18.019C5.38412 15.8629 5.38412 13.619 5.88987 11.4629L3.22036 10.8367C2.618 13.4047 2.618 16.0772 3.22036 18.6452L5.88987 18.019ZM23.5859 11.4629C24.0916 13.619 24.0916 15.8629 23.5859 18.019L26.2554 18.6451C26.8577 16.0772 26.8577 13.4047 26.2554 10.8367L23.5859 11.4629ZM18.0159 23.5889C15.8598 24.0947 13.6159 24.0947 11.4598 23.5889L10.8336 26.2584C13.4016 26.8608 16.0741 26.8608 18.6421 26.2584L18.0159 23.5889ZM11.4598 5.89292C13.6159 5.38717 15.8598 5.38717 18.0159 5.89292L18.6421 3.22341C16.0741 2.62105 13.4016 2.62105 10.8336 3.22341L11.4598 5.89292ZM11.4598 23.5889C8.6961 22.9406 6.53816 20.7827 5.88987 18.019L3.22036 18.6452C4.10647 22.4227 7.05605 25.3723 10.8336 26.2584L11.4598 23.5889ZM18.6421 26.2584C22.4197 25.3723 25.3693 22.4227 26.2554 18.6451L23.5859 18.019C22.9376 20.7827 20.7796 22.9406 18.0159 23.5889L18.6421 26.2584ZM18.0159 5.89292C20.7796 6.54121 22.9376 8.69915 23.5859 11.4629L26.2554 10.8367C25.3693 7.0591 22.4197 4.10952 18.6421 3.22341L18.0159 5.89292ZM10.8336 3.22341C7.05604 4.10952 4.10647 7.05909 3.22036 10.8367L5.88987 11.4629C6.53816 8.69915 8.6961 6.54121 11.4598 5.89292L10.8336 3.22341Z" fill="white"/>
<path d="M4.55512 18.3321L5.88987 18.019L4.55512 18.3321ZM5.88987 11.4629C6.06279 10.7257 5.60537 9.98794 4.86821 9.81502C4.13104 9.64211 3.39328 10.0995 3.22036 10.8367L5.88987 11.4629ZM24.9206 11.1498L26.2554 10.8367L24.9206 11.1498ZM24.9206 18.3321L23.5859 18.019L24.9206 18.3321ZM18.329 24.9237L18.0159 23.5889L18.329 24.9237ZM11.1467 24.9237L10.8336 26.2584L11.1467 24.9237ZM10.8336 3.22341C10.0965 3.39633 9.63906 4.13409 9.81198 4.87126C9.98489 5.60842 10.7227 6.06584 11.4598 5.89292L10.8336 3.22341ZM18.329 4.55817L18.6421 3.22341L18.329 4.55817ZM5.88987 18.019C5.38412 15.8629 5.38412 13.619 5.88987 11.4629L3.22036 10.8367C2.618 13.4047 2.618 16.0772 3.22036 18.6452L5.88987 18.019ZM23.5859 11.4629C24.0916 13.619 24.0916 15.8629 23.5859 18.019L26.2554 18.6451C26.8577 16.0772 26.8577 13.4047 26.2554 10.8367L23.5859 11.4629ZM18.0159 23.5889C15.8598 24.0947 13.6159 24.0947 11.4598 23.5889L10.8336 26.2584C13.4016 26.8608 16.0741 26.8608 18.6421 26.2584L18.0159 23.5889ZM11.4598 5.89292C13.6159 5.38717 15.8598 5.38717 18.0159 5.89292L18.6421 3.22341C16.0741 2.62105 13.4016 2.62105 10.8336 3.22341L11.4598 5.89292ZM11.4598 23.5889C8.6961 22.9406 6.53816 20.7827 5.88987 18.019L3.22036 18.6452C4.10647 22.4227 7.05605 25.3723 10.8336 26.2584L11.4598 23.5889ZM18.6421 26.2584C22.4197 25.3723 25.3693 22.4227 26.2554 18.6451L23.5859 18.019C22.9376 20.7827 20.7796 22.9406 18.0159 23.5889L18.6421 26.2584ZM18.0159 5.89292C20.7796 6.54121 22.9376 8.69915 23.5859 11.4629L26.2554 10.8367C25.3693 7.0591 22.4197 4.10952 18.6421 3.22341L18.0159 5.89292Z" fill="white"/>
</svg>
