<svg width="41" height="44" viewBox="0 0 41 44" fill="none" xmlns="http://www.w3.org/2000/svg">
<path d="M25.189 8.62888C25.189 7.12331 24.0886 5.84377 22.6 5.6183C22.2222 5.56107 21.8379 5.56107 21.4601 5.6183C19.9715 5.84377 18.8711 7.12332 18.8711 8.6289V10.758C18.0206 11.0007 17.2104 11.339 16.4529 11.7606L14.9468 10.2544C13.8822 9.18981 12.1993 9.06309 10.9873 9.95626C10.6797 10.183 10.4079 10.4547 10.1812 10.7623C9.28805 11.9744 9.41477 13.6572 10.4794 14.7218L11.9855 16.228C11.564 16.9855 11.2257 17.7957 10.983 18.6461H8.85388C7.34829 18.6461 6.06874 19.7465 5.84328 21.2351C5.78605 21.6129 5.78605 21.9972 5.84328 22.3751C6.06874 23.8637 7.34829 24.964 8.85386 24.964H10.983C11.2257 25.8145 11.564 26.6247 11.9855 27.3822L10.4794 28.8883C9.41478 29.9529 9.28806 31.6358 10.1812 32.8478C10.4079 33.1554 10.6797 33.4272 10.9873 33.6539C12.1993 34.547 13.8822 34.4203 14.9468 33.3557L16.4529 31.8496C17.2104 32.2711 18.0206 32.6094 18.8711 32.8521V34.9812C18.8711 36.4868 19.9714 37.7664 21.4601 37.9918C21.8379 38.0491 22.2222 38.0491 22.6 37.9918C24.0886 37.7664 25.189 36.4868 25.189 34.9812V32.8522C26.0394 32.6094 26.8496 32.2711 27.6072 31.8496L29.1133 33.3557C30.1779 34.4203 31.8607 34.5471 33.0728 33.6539C33.3804 33.4272 33.6521 33.1554 33.8788 32.8478C34.772 31.6358 34.6453 29.9529 33.5807 28.8883L32.0746 27.3822C32.4961 26.6247 32.8344 25.8145 33.0771 24.964H35.2062C36.7118 24.964 37.9913 23.8637 38.2168 22.3751C38.274 21.9972 38.274 21.6129 38.2168 21.2351C37.9913 19.7465 36.7118 18.6461 35.2062 18.6461H33.0771C32.8344 17.7956 32.4961 16.9855 32.0746 16.2279L33.5807 14.7218C34.6453 13.6572 34.772 11.9744 33.8789 10.7623C33.6522 10.4547 33.3804 10.183 33.0728 9.95626C31.8607 9.06308 30.1779 9.1898 29.1133 10.2544L27.6072 11.7605C26.8496 11.339 26.0394 11.0007 25.189 10.758V8.62888Z" stroke="#FEA609" stroke-width="2.70495" stroke-linecap="round" stroke-linejoin="round"/>
<path d="M33.0728 33.6539C31.8607 34.5471 30.1779 34.4203 29.1133 33.3557L27.6072 31.8496C26.8496 32.2711 26.0394 32.6094 25.189 32.8522V34.9812C25.189 36.4868 24.0886 37.7664 22.6 37.9918C22.2222 38.0491 21.8379 38.0491 21.4601 37.9918C19.9714 37.7664 18.8711 36.4868 18.8711 34.9812V32.8521C18.0206 32.6094 17.2104 32.2711 16.4529 31.8496L14.9468 33.3557C13.8822 34.4203 12.1993 34.547 10.9873 33.6539C10.6797 33.4272 10.4079 33.1554 10.1812 32.8478C9.28806 31.6358 9.41478 29.9529 10.4794 28.8883L11.9855 27.3822C11.564 26.6247 11.2257 25.8145 10.983 24.964H8.85386C7.34829 24.964 6.06874 23.8637 5.84328 22.3751C5.78605 21.9972 5.78605 21.6129 5.84328 21.2351C6.06874 19.7465 7.34829 18.6461 8.85388 18.6461H10.983C11.2257 17.7957 11.564 16.9855 11.9855 16.228L10.4794 14.7218C9.41477 13.6572 9.28805 11.9744 10.1812 10.7623C10.4079 10.4547 10.6797 10.183 10.9873 9.95626C12.1993 9.06309 13.8822 9.18981 14.9468 10.2544L16.4529 11.7606C17.2104 11.339 18.0206 11.0007 18.8711 10.758V8.6289C18.8711 7.12332 19.9715 5.84377 21.4601 5.6183C21.8379 5.56107 22.2222 5.56107 22.6 5.6183C24.0886 5.84377 25.189 7.12331 25.189 8.62888V10.758C26.0394 11.0007 26.8496 11.339 27.6072 11.7605L29.1133 10.2544C30.1779 9.1898 31.8607 9.06308 33.0728 9.95626" stroke="white" stroke-width="2.70495" stroke-linecap="round" stroke-linejoin="round"/>
<path d="M16.2528 21.8051C16.2528 19.3152 18.1217 17.2968 20.4271 17.2968C22.7325 17.2968 24.6014 19.3152 24.6014 21.8051C24.6014 24.2949 22.7325 26.3133 20.4271 26.3133C18.1217 26.3133 16.2528 24.2949 16.2528 21.8051Z" stroke="#FEA609" stroke-width="2.70495"/>
</svg>
