<svg width="41" height="44" viewBox="0 0 41 44" fill="none" xmlns="http://www.w3.org/2000/svg">
<path d="M26.8979 35.4909L27.1994 35.2658C28.1428 34.5613 28.6146 34.2089 29.0365 33.8312C31.3295 31.7788 32.8695 28.9179 33.3821 25.7588C33.4764 25.1774 33.5255 24.5624 33.6235 23.3323L33.6742 22.6962C33.8365 20.6602 33.8203 18.6122 33.6259 16.5795L33.5657 15.9504C33.2255 12.393 31.2034 9.27516 28.2154 7.70073C23.3026 5.11209 17.5516 5.11209 12.6389 7.70073C9.65089 9.27516 7.62879 12.393 7.28855 15.9504L7.22839 16.5795C7.03396 18.6122 7.01778 20.6602 7.18006 22.6962L7.23076 23.3323C7.3288 24.5624 7.37782 25.1774 7.47215 25.7588C7.98473 28.9179 9.52478 31.7788 11.8177 33.8312C12.2397 34.2089 12.7115 34.5613 13.6548 35.2658L13.9563 35.4909C15.2389 36.4488 15.8802 36.9277 16.5229 37.2605C18.99 38.538 21.8643 38.538 24.3313 37.2605C24.9741 36.9277 25.6154 36.4488 26.8979 35.4909Z" stroke="#FEA609" stroke-width="2.70495"/>
<path d="M33.6235 23.3323L33.6742 22.6962C33.8365 20.6602 33.8203 18.6122 33.6259 16.5795L33.5657 15.9504C33.2255 12.393 31.2034 9.27516 28.2154 7.70073C23.3026 5.11209 17.5516 5.11209 12.6389 7.70073C9.65089 9.27516 7.62879 12.393 7.28855 15.9504L7.22839 16.5795C7.03396 18.6122 7.01778 20.6602 7.18006 22.6962L7.23076 23.3323C7.3288 24.5624 7.37782 25.1774 7.47215 25.7588C7.98473 28.9179 9.52478 31.7788 11.8177 33.8312C12.2397 34.2089 12.7115 34.5613 13.6548 35.2658L13.9563 35.4909C15.2389 36.4488 15.8802 36.9277 16.5229 37.2605" stroke="white" stroke-width="2.70495" stroke-linecap="round"/>
<path d="M15.8354 21.5381L19.1748 25.1447L25.0188 18.3823" stroke="#FEA609" stroke-width="2.70495" stroke-linecap="round" stroke-linejoin="round"/>
</svg>
